<?xml version="1.0" standalone="no"?>
<!DOCTYPE svg PUBLIC "-//W3C//DTD SVG 20010904//EN"
 "http://www.w3.org/TR/2001/REC-SVG-20010904/DTD/svg10.dtd">
<svg version="1.0" xmlns="http://www.w3.org/2000/svg"
 width="906.000000pt" height="906.000000pt" viewBox="0 0 906.000000 906.000000"
 preserveAspectRatio="xMidYMid meet">
<metadata>
Created by potrace 1.11, written by Peter Selinger 2001-2013
</metadata>
<g transform="translate(0.000000,906.000000) scale(0.100000,-0.100000)"
fill="#000000" stroke="none">
<path d="M1998 5853 l-1998 -3 0 -1330 0 -1330 4530 0 4530 0 0 1335 0 1335
-2532 -2 c-1393 -2 -3432 -4 -4530 -5z m-1092 -823 c93 -40 166 -137 180 -239
l7 -51 -75 0 -75 0 -7 47 c-8 61 -41 108 -92 133 -109 54 -221 -5 -232 -121
-9 -99 35 -147 193 -208 217 -84 285 -161 285 -321 0 -77 -16 -124 -62 -175
-122 -140 -423 -125 -534 26 -41 57 -52 83 -56 145 l-3 49 71 3 71 3 7 -49
c13 -98 74 -152 179 -158 112 -8 177 50 177 155 0 102 -55 160 -193 205 -199
65 -287 157 -287 301 0 139 98 250 245 276 57 10 153 0 201 -21z m748 -102
c84 -273 276 -906 276 -912 0 -12 -151 -6 -154 7 -2 6 -19 65 -37 129 l-34
118 -160 0 -161 0 -35 -127 -36 -128 -78 -3 c-60 -2 -76 0 -73 10 3 7 75 239
159 515 l154 503 72 0 72 0 35 -112z m836 83 c94 -49 137 -112 147 -215 9 -97
-28 -183 -97 -225 l-28 -17 43 -23 c82 -43 121 -136 113 -265 -7 -113 -54
-182 -153 -228 -46 -21 -66 -23 -262 -26 l-213 -3 0 516 0 517 203 -4 c189 -3
205 -5 247 -27z m787 0 c119 -53 178 -185 142 -316 -13 -49 -51 -100 -91 -125
-29 -17 -29 -18 -8 -25 33 -11 89 -64 113 -109 18 -34 22 -57 22 -136 0 -83
-3 -102 -26 -145 -14 -28 -44 -64 -67 -82 -71 -54 -121 -63 -339 -63 l-193 0
0 516 0 516 198 -4 c182 -3 201 -5 249 -27z"/>
<path d="M1487 4622 c-31 -110 -60 -208 -63 -217 -5 -13 10 -15 121 -15 116 0
126 1 121 18 -3 9 -17 60 -32 112 -14 52 -40 142 -58 199 l-31 105 -58 -202z"/>
<path d="M2273 4922 l-83 -3 0 -159 0 -160 100 0 c122 0 149 11 180 76 19 37
22 57 17 106 -4 50 -11 66 -37 93 -40 41 -76 51 -177 47z"/>
<path d="M2190 4310 l0 -180 111 0 c132 0 170 13 199 71 29 55 27 159 -3 218
-29 58 -62 69 -199 70 l-108 1 0 -180z"/>
<path d="M2980 4763 l0 -163 96 0 c155 0 198 34 199 160 0 69 -26 129 -63 146
-9 4 -65 10 -125 13 l-107 6 0 -162z"/>
<path d="M2980 4310 l0 -182 124 4 c122 3 125 4 155 32 17 16 36 45 42 64 15
47 6 161 -16 199 -30 50 -50 57 -182 61 l-123 4 0 -182z"/>
</g>
</svg>
